<?xml version="1.0" standalone="no"?>
<!DOCTYPE svg PUBLIC "-//W3C//DTD SVG 20010904//EN"
 "http://www.w3.org/TR/2001/REC-SVG-20010904/DTD/svg10.dtd">
<svg version="1.0" xmlns="http://www.w3.org/2000/svg"
 width="360.000000pt" height="360.000000pt" viewBox="0 0 360.000000 360.000000"
 preserveAspectRatio="xMidYMid meet">

<g transform="translate(0.000000,360.000000) scale(0.100000,-0.100000)"
fill="#000000" stroke="none">
<path d="M2736 2793 c-3 -3 -6 -32 -6 -64 l0 -57 48 -6 c81 -10 166 -11 180
-3 7 5 12 30 12 62 l0 54 -52 5 c-125 12 -176 15 -182 9z"/>
<path d="M1506 2778 c-2 -7 -14 -107 -25 -223 -22 -216 -37 -345 -51 -450 -5
-33 -8 -106 -7 -162 2 -56 1 -100 -1 -98 -2 2 -8 38 -13 80 -13 120 -53 168
-152 181 -44 6 -93 -9 -82 -26 3 -4 -13 -11 -36 -15 l-41 -7 5 -39 c3 -21 1
-39 -4 -39 -5 0 -9 3 -9 8 0 4 -9 18 -19 32 l-19 24 -72 -77 c-40 -42 -76 -77
-81 -77 -4 0 -2 19 6 41 21 58 19 61 -22 37 -37 -22 -38 -14 -5 25 25 28 -3
20 -50 -16 -24 -18 -53 -52 -66 -77 -13 -26 -30 -45 -40 -46 -49 -3 -52 -5
-52 -29 0 -21 5 -25 29 -25 16 0 42 -3 59 -6 29 -6 31 -4 34 27 l3 34 68 3 67
3 0 -41 0 -40 60 0 60 0 0 40 0 40 71 0 71 0 -6 -44 -7 -44 56 -7 c31 -3 59
-4 62 -1 3 3 8 25 10 51 l6 45 49 0 c42 0 49 -3 44 -16 -3 -9 -6 -34 -6 -56
l0 -40 -44 3 c-44 4 -44 4 -50 -31 -3 -19 -6 -47 -6 -62 0 -27 1 -28 60 -28
51 0 60 3 60 18 0 16 8 18 51 18 42 -1 53 3 69 24 l20 25 0 -46 c0 -44 2 -47
31 -53 17 -3 44 -6 59 -6 26 0 28 3 33 58 2 31 4 58 3 59 -1 1 -28 5 -60 9
-44 5 -60 4 -67 -7 -7 -11 -9 -11 -9 3 0 9 -4 18 -9 20 -4 2 -5 12 0 23 7 19
8 19 8 -3 2 -46 21 -10 21 39 l0 49 68 0 69 0 -5 -56 c-5 -66 2 -74 71 -74
l47 0 0 38 c0 20 3 47 6 59 4 15 1 22 -13 25 -10 3 28 4 85 4 56 -1 102 -4
102 -8 0 -5 -9 -8 -20 -8 -14 0 -20 -7 -20 -22 0 -13 -3 -40 -6 -60 l-7 -38
56 0 c31 0 58 -4 61 -9 6 -9 -82 -101 -96 -101 -4 0 -8 -5 -8 -11 0 -6 24 10
54 35 l53 46 602 0 601 0 0 30 0 30 -542 2 c-428 2 -542 6 -541 16 2 6 -2 12
-8 12 -6 0 -9 6 -6 13 2 6 -2 20 -11 29 -12 14 -12 20 -2 33 10 13 10 19 -4
33 -18 21 -21 48 -6 57 6 3 10 -2 10 -12 0 -10 6 -29 13 -43 12 -22 11 -28 0
-39 -17 -15 0 -41 26 -41 14 1 13 2 -2 11 -17 10 -17 12 -2 23 9 7 19 36 24
72 14 98 62 176 139 225 25 16 56 29 69 29 20 0 23 5 23 43 0 82 -70 293 -94
284 -6 -3 -86 -34 -178 -71 -92 -36 -172 -66 -176 -66 -5 0 -41 87 -82 194
-40 107 -78 193 -84 192 -6 -2 -8 -1 -3 1 7 5 10 43 3 43 -22 0 -144 -55 -140
-62 4 -6 -2 -6 -13 1 -14 7 -19 17 -16 34 5 23 1 24 -58 30 -86 10 -99 9 -103
-5z m137 -25 c-7 -2 -13 -17 -13 -33 0 -16 6 -30 13 -33 6 -2 8 -8 4 -13 -12
-13 -27 17 -27 54 0 24 4 32 18 31 10 0 12 -3 5 -6z m53 -88 c9 -22 42 -110
74 -195 32 -85 61 -162 65 -171 5 -13 -9 -22 -72 -45 -43 -15 -89 -34 -103
-41 -38 -20 -53 -17 -47 10 3 12 16 122 28 245 18 179 21 227 11 243 -11 18
-11 18 8 7 11 -7 27 -31 36 -53z m51 43 c-3 -8 -6 -5 -6 6 -1 11 2 17 5 13 3
-3 4 -12 1 -19z m112 -40 c6 -18 7 -28 2 -23 -10 12 -25 55 -18 55 3 0 10 -15
16 -32z m-241 -13 c-3 -3 -9 2 -12 12 -6 14 -5 15 5 6 7 -7 10 -15 7 -18z
m126 -45 c5 -17 4 -20 -2 -10 -5 8 -13 26 -16 40 -5 17 -4 20 2 10 5 -8 13
-26 16 -40z m146 -25 c0 -5 -5 -3 -10 5 -5 8 -10 20 -10 25 0 6 5 3 10 -5 5
-8 10 -19 10 -25z m-273 -57 c-3 -8 -6 -5 -6 6 -1 11 2 17 5 13 3 -3 4 -12 1
-19z m-120 -70 c-3 -8 -6 -5 -6 6 -1 11 2 17 5 13 3 -3 4 -12 1 -19z m430 -30
c-3 -8 -6 -5 -6 6 -1 11 2 17 5 13 3 -3 4 -12 1 -19z m-420 -45 c-3 -10 -5 -2
-5 17 0 19 2 27 5 18 2 -10 2 -26 0 -35z m326 2 c-3 -9 -8 -14 -10 -11 -3 3
-2 9 2 15 9 16 15 13 8 -4z m104 -16 c0 -21 -3 -26 -9 -16 -4 9 -5 22 -2 31 9
23 11 20 11 -15z m30 -11 c-3 -8 -6 -5 -6 6 -1 11 2 17 5 13 3 -3 4 -12 1 -19z
m-470 -30 c-3 -8 -6 -5 -6 6 -1 11 2 17 5 13 3 -3 4 -12 1 -19z m588 -213 c5
-16 3 -15 -14 5 -11 14 -20 39 -20 55 l0 30 13 -35 c7 -19 17 -44 21 -55z
m-70 45 c3 -5 1 -10 -4 -10 -6 0 -11 5 -11 10 0 6 2 10 4 10 3 0 8 -4 11 -10z
m20 -70 c3 -5 1 -10 -4 -10 -6 0 -11 5 -11 10 0 6 2 10 4 10 3 0 8 -4 11 -10z
m-67 -102 c-2 -7 3 -12 11 -13 8 0 16 -7 18 -15 4 -13 3 -13 -6 0 -14 19 -14
0 -1 -34 5 -15 6 -26 1 -26 -5 0 -12 13 -16 29 -3 16 -13 35 -21 41 -7 7 -11
16 -8 21 8 13 24 11 22 -3z m-413 -98 c-28 -12 -37 -12 -30 0 3 6 16 10 28 9
21 0 21 -1 2 -9z m15 -14 c0 -3 -4 -8 -10 -11 -5 -3 -10 -1 -10 4 0 6 5 11 10
11 6 0 10 -2 10 -4z m505 -66 c-11 -12 -16 -29 -13 -45 3 -14 1 -25 -4 -25
-13 0 -7 73 7 82 21 15 28 7 10 -12z m-605 1 c0 -5 -7 -12 -16 -15 -14 -5 -15
-4 -4 9 14 17 20 19 20 6z m46 -6 c17 -16 14 -18 -10 -9 -9 3 -16 10 -16 15 0
13 9 11 26 -6z m-89 -27 c-3 -8 -6 -5 -6 6 -1 11 2 17 5 13 3 -3 4 -12 1 -19z
m-10 -40 c-3 -8 -6 -5 -6 6 -1 11 2 17 5 13 3 -3 4 -12 1 -19z m120 -22 c-3
-8 -16 -20 -29 -27 l-23 -11 23 21 c12 12 22 27 22 33 0 6 3 9 6 5 4 -3 4 -13
1 -21z m647 15 c3 -5 -1 -14 -9 -21 -13 -11 -14 -10 -9 6 6 16 5 17 -7 7 -15
-15 -75 -17 -83 -4 -4 5 11 7 33 4 23 -3 41 -1 45 6 9 13 23 14 30 2z m-749
-21 c-3 -5 1 -10 9 -10 8 0 17 -4 20 -9 3 -4 -6 -6 -19 -3 -24 4 -36 32 -14
32 5 0 7 -4 4 -10z"/>
<path d="M960 2523 c-497 -87 -644 -114 -647 -116 -1 -2 12 -89 31 -193 19
-104 40 -223 46 -264 7 -41 16 -85 21 -96 4 -13 3 -26 -3 -32 -7 -7 11 -10 58
-9 62 2 69 4 69 22 0 16 -7 20 -40 22 -22 1 -41 7 -43 12 -2 5 -10 7 -18 4 -8
-3 -14 0 -14 6 0 6 5 11 12 11 6 0 4 8 -6 19 -10 11 -14 25 -10 36 5 12 4 16
-3 12 -15 -9 -26 88 -13 112 13 25 13 32 -1 29 -15 -4 -39 92 -42 163 -1 31
-5 52 -9 45 -4 -6 -8 6 -8 26 0 20 -2 42 -5 50 -4 10 18 18 87 31 51 9 104 20
118 23 20 4 22 3 10 -5 -21 -15 -4 -14 28 3 30 15 101 28 146 27 15 0 40 6 55
13 14 7 40 12 56 11 17 -1 32 2 35 5 3 4 31 11 64 15 l59 7 -7 -29 c-4 -18 -3
-23 3 -14 6 9 11 -9 16 -58 4 -39 11 -71 16 -71 12 0 11 -67 -2 -93 -10 -22
-10 -22 6 -2 l17 20 -3 -20 c-1 -11 1 -32 6 -48 4 -17 3 -32 -4 -41 -6 -7 -8
-27 -5 -43 5 -24 10 -30 25 -26 13 4 18 11 15 22 -3 9 -10 48 -16 86 -5 39
-21 128 -35 198 -14 71 -25 131 -25 133 0 2 -3 3 -7 3 -5 -1 -19 -4 -33 -6z
m99 -406 c0 -21 -1 -21 -9 -2 -12 28 -12 37 0 30 6 -3 10 -16 9 -28z"/>
<path d="M2410 2502 c0 -4 4 -12 9 -17 16 -18 51 -128 70 -220 20 -96 29 -70
10 31 -12 67 -67 214 -80 214 -5 0 -9 -4 -9 -8z"/>
<path d="M2731 2494 c0 -11 3 -14 6 -6 3 7 2 16 -1 19 -3 4 -6 -2 -5 -13z"/>
<path d="M888 2483 c7 -3 16 -2 19 1 4 3 -2 6 -13 5 -11 0 -14 -3 -6 -6z"/>
<path d="M653 2433 c9 -2 23 -2 30 0 6 3 -1 5 -18 5 -16 0 -22 -2 -12 -5z"/>
<path d="M508 2413 c7 -3 16 -2 19 1 4 3 -2 6 -13 5 -11 0 -14 -3 -6 -6z"/>
<path d="M598 2413 c6 -2 18 -2 25 0 6 3 1 5 -13 5 -14 0 -19 -2 -12 -5z"/>
<path d="M908 2393 c7 -3 16 -2 19 1 4 3 -2 6 -13 5 -11 0 -14 -3 -6 -6z"/>
<path d="M818 2363 c6 -2 18 -2 25 0 6 3 1 5 -13 5 -14 0 -19 -2 -12 -5z"/>
<path d="M803 2343 c-24 -2 -43 -8 -43 -14 0 -5 -13 -9 -28 -9 -50 0 -179 -26
-170 -35 2 -2 77 9 167 24 152 27 165 28 191 13 34 -20 52 -47 59 -91 3 -19 9
-32 12 -30 10 6 39 -22 33 -32 -3 -5 0 -9 5 -9 6 0 11 5 11 11 0 13 -25 39
-38 39 -5 0 -12 18 -16 39 -4 27 -16 48 -41 70 -37 32 -42 33 -142 24z"/>
<path d="M406 2307 c-11 -8 -17 -19 -15 -24 2 -6 12 0 22 13 20 27 19 30 -7
11z"/>
<path d="M2532 2290 c0 -14 2 -19 5 -12 2 6 2 18 0 25 -3 6 -5 1 -5 -13z"/>
<path d="M429 2280 c-13 -10 -19 -19 -13 -20 6 0 19 9 29 20 23 26 14 26 -16
0z"/>
<path d="M371 2274 c0 -11 3 -14 6 -6 3 7 2 16 -1 19 -3 4 -6 -2 -5 -13z"/>
<path d="M505 2280 c-3 -5 3 -10 14 -10 11 0 23 5 26 10 3 6 -3 10 -14 10 -11
0 -23 -4 -26 -10z"/>
<path d="M1001 2274 c0 -11 3 -14 6 -6 3 7 2 16 -1 19 -3 4 -6 -2 -5 -13z"/>
<path d="M2631 2260 c44 -23 109 -96 109 -122 0 -26 -4 -33 -17 -32 -6 1 -9
-5 -5 -14 7 -19 -57 17 -99 55 -14 12 -29 23 -34 23 -16 0 28 -40 74 -66 25
-15 48 -28 50 -30 2 -2 -7 -19 -19 -38 -12 -20 -19 -40 -15 -46 9 -15 32 -12
39 5 7 21 66 55 94 55 14 0 22 6 22 18 0 24 -19 42 -45 42 -15 0 -25 10 -34
35 -17 48 -56 92 -102 115 -21 11 -42 20 -46 20 -4 -1 8 -10 28 -20z"/>
<path d="M444 2245 c-16 -22 -20 -23 -25 -8 -5 14 -7 14 -11 -5 -4 -12 -2 -20
3 -16 5 3 9 -6 9 -21 0 -14 -7 -28 -15 -31 -8 -4 -15 -11 -15 -16 0 -6 6 -5
15 2 13 11 15 8 17 -16 1 -16 1 -44 -1 -61 -1 -18 3 -33 8 -33 5 0 13 -9 16
-21 14 -43 14 -10 0 56 -22 105 -20 132 14 166 16 16 24 29 17 29 -7 0 -22
-11 -32 -25z"/>
<path d="M376 2225 c-3 -9 -6 -22 -5 -28 0 -7 5 -1 10 12 5 13 8 26 5 28 -2 2
-6 -3 -10 -12z"/>
<path d="M1001 2084 c0 -11 3 -14 6 -6 3 7 2 16 -1 19 -3 4 -6 -2 -5 -13z"/>
<path d="M454 1942 c3 -53 26 -100 26 -54 0 12 -4 22 -9 22 -5 0 -7 8 -5 18 3
9 1 28 -5 42 -9 21 -10 16 -7 -28z"/>
<path d="M290 1710 l0 -130 33 1 c29 1 30 2 7 8 -25 7 -25 9 -28 123 l-3 117
53 4 53 3 -57 2 -58 2 0 -130z"/>
<path d="M2225 1830 c-3 -5 -1 -10 4 -10 6 0 11 5 11 10 0 6 -2 10 -4 10 -3 0
-8 -4 -11 -10z"/>
<path d="M3203 1833 l98 -4 -3 -116 c-3 -115 -3 -117 -28 -124 -23 -6 -22 -7
8 -8 l32 -1 0 130 0 130 -102 -2 -103 -2 98 -3z"/>
<path d="M536 1769 c-3 -17 -6 -43 -6 -57 l0 -26 -28 27 c-25 24 -36 27 -100
27 l-72 0 0 -30 0 -30 93 0 c50 0 122 -2 158 -4 l67 -3 6 36 c14 85 12 87 -53
90 -58 2 -58 2 -65 -30z"/>
<path d="M795 1782 c-3 -3 -5 -32 -5 -64 l0 -58 59 0 58 0 6 53 c3 28 2 55 -1
58 -9 9 -110 18 -117 11z"/>
<path d="M2189 1777 c6 -8 8 -17 4 -20 -3 -4 -1 -7 5 -7 7 0 12 9 12 20 0 12
-7 20 -16 20 -13 0 -14 -3 -5 -13z"/>
<path d="M1046 1714 c-4 -31 -5 -58 -3 -60 2 -2 28 -6 59 -10 52 -6 55 -5 61
17 4 13 7 40 7 60 0 42 -11 49 -74 49 l-43 0 -7 -56z"/>
<path d="M1820 1691 c0 -16 -3 -42 -6 -59 l-6 -30 53 -4 c30 -2 60 0 67 5 7 6
12 32 12 63 l0 54 -60 0 c-59 0 -60 0 -60 -29z"/>
<path d="M661 1662 c-6 -2 -11 -29 -11 -59 0 -54 -1 -55 -18 -40 -15 14 -41
17 -140 17 -67 0 -122 -4 -122 -9 0 -20 30 -92 50 -119 27 -36 36 -77 55 -244
9 -86 22 -153 36 -184 33 -79 89 -313 89 -379 1 -43 8 -74 25 -110 14 -27 25
-62 25 -76 0 -49 30 -63 128 -59 123 5 193 2 225 -11 16 -7 48 -9 80 -5 126
17 186 18 264 6 74 -12 90 -11 137 3 67 21 119 21 229 0 83 -16 91 -16 135 0
57 21 147 22 227 2 79 -19 110 -19 141 1 20 14 42 16 117 11 51 -3 113 -11
138 -18 38 -10 53 -10 94 4 61 21 103 21 222 1 109 -19 137 -14 157 25 13 24
53 218 101 484 8 43 23 89 34 103 10 13 24 47 31 74 11 47 11 52 -9 69 l-21
18 30 119 c17 65 30 126 30 135 0 9 11 20 24 23 19 5 29 19 45 71 24 72 25 78
12 71 -5 -3 -298 -6 -651 -6 l-642 -1 -56 -49 c-32 -27 -68 -58 -82 -70 -27
-23 -26 -23 42 -4 21 6 21 6 15 -107 -4 -63 -7 -133 -7 -156 l0 -43 -56 0 -56
0 7 130 c4 72 3 130 -1 130 -5 0 -47 -36 -93 -79 l-84 -78 32 -1 c18 0 36 -3
39 -7 3 -3 -17 -5 -46 -4 -50 2 -52 1 -132 -71 -44 -40 -79 -74 -77 -77 7 -6
37 8 37 18 0 5 25 9 55 9 l55 0 0 -55 0 -56 -43 3 c-24 2 -44 8 -44 13 0 12
59 14 68 2 3 -4 5 11 5 34 l0 40 -51 -5 c-92 -9 -104 -14 -155 -58 -40 -35
-50 -49 -50 -75 0 -30 -1 -31 -45 -31 -40 1 -47 5 -65 36 l-21 35 55 -6 c63
-6 66 -3 66 74 l0 49 -60 0 -60 0 -2 -37 c0 -21 -1 -46 0 -55 1 -10 -5 -18
-13 -18 -8 0 -15 3 -15 8 0 4 -21 30 -46 57 -25 28 -43 41 -40 31 6 -16 4 -17
-10 -5 -9 7 -23 14 -31 15 -8 2 -18 6 -21 10 -4 4 7 4 24 1 18 -3 34 -3 38 0
3 4 30 6 60 4 l53 -2 5 58 c3 32 5 59 4 60 -1 1 -28 3 -61 5 l-60 3 -3 -52 -3
-53 -40 0 c-34 0 -39 3 -40 23 -1 44 -10 70 -27 84 -15 12 -9 13 43 11 59 -2
60 -1 66 28 4 16 7 44 8 62 l1 32 -59 0 c-65 0 -71 -7 -71 -77 0 -39 -12 -42
-33 -10 -39 59 -65 77 -110 77 -52 0 -57 8 -57 80 0 31 -5 52 -16 61 -14 11
-15 9 -9 -24 7 -36 6 -37 -23 -37 -17 0 -34 5 -38 11 -4 8 1 9 17 4 21 -7 22
-6 10 8 -11 14 -11 18 3 23 9 3 13 10 10 16 -4 5 -10 5 -17 0 -7 -5 -21 -6
-32 -1 -11 4 -15 8 -10 9 6 1 21 3 35 6 14 2 55 4 93 4 l67 0 0 50 c0 27 0 53
0 58 1 8 -92 20 -109 14z m-221 -154 c0 -17 5 -19 28 -15 35 7 83 -3 76 -15
-8 -12 -107 -7 -116 6 -11 16 -10 58 2 51 6 -3 10 -15 10 -27z m1488 -5 c-3
-35 -6 -38 -35 -41 -20 -2 -33 1 -33 8 0 7 -7 9 -17 5 -13 -4 -15 -3 -7 5 8 8
19 8 39 0 34 -13 38 -9 37 30 0 16 4 30 9 30 6 0 9 -17 7 -37z m138 21 c-3 -9
-9 -47 -12 -84 l-7 -69 -51 6 c-28 3 -53 7 -55 9 -2 2 0 37 4 79 l7 75 60 0
c51 0 59 -2 54 -16z m282 -24 c-3 -33 -5 -35 -38 -33 -19 1 -79 2 -132 3 -54
1 -98 6 -98 11 0 5 18 9 41 9 29 0 38 3 33 13 -6 9 -5 9 7 0 8 -6 51 -14 96
-18 76 -7 81 -6 79 11 -2 16 -13 20 -62 22 -41 2 -54 6 -44 13 8 5 39 8 68 7
l53 -3 -3 -35z m138 8 c-4 -18 -10 -57 -13 -86 -5 -48 -8 -53 -27 -48 -12 3
-36 6 -55 6 l-34 0 7 65 c10 95 10 95 73 95 l56 0 -7 -32z m151 21 c73 2 109
-2 121 -11 10 -8 13 -9 9 -1 -4 6 -3 14 3 18 12 7 12 -1 4 -44 -6 -26 -11 -31
-35 -31 -16 0 -29 5 -29 10 0 5 3 9 8 9 20 -3 42 2 42 11 0 5 -6 8 -12 6 -7
-1 -10 -1 -5 1 26 15 -8 22 -108 20 -83 -1 -115 -5 -115 -14 0 -16 17 -26 25
-14 3 6 11 8 18 6 7 -3 36 -6 64 -8 89 -6 71 -17 -26 -16 l-91 1 0 35 c0 22 4
32 11 27 6 -3 58 -6 116 -5z m277 -11 c-4 -13 -13 -50 -19 -83 -6 -35 -16 -60
-23 -59 -7 1 -30 2 -52 3 -46 1 -48 7 -28 103 l12 58 59 0 c56 0 58 -1 51 -22z
m54 -20 c-21 -8 -23 -14 -6 -24 7 -4 8 -3 4 4 -4 7 -3 12 3 12 5 0 12 -6 14
-12 4 -10 8 -10 14 -1 4 6 25 11 46 11 39 0 67 11 31 13 -18 0 -18 1 1 10 18
8 18 9 -5 8 -14 -1 -41 0 -60 1 -28 1 -31 3 -15 9 11 5 27 7 35 5 8 -1 39 -3
68 -3 28 -1 52 -5 52 -11 0 -5 -12 -8 -27 -7 -21 1 -27 -2 -25 -14 3 -21 -9
-25 -91 -34 -67 -7 -67 -7 -67 18 0 14 3 33 6 42 6 14 8 14 24 -2 16 -17 16
-18 -2 -25z m205 5 c-5 -29 -9 -33 -34 -33 -19 0 -29 5 -29 15 0 8 5 15 11 15
5 0 7 -5 4 -11 -4 -6 2 -5 13 2 12 7 23 22 26 33 8 31 14 15 9 -21z m-2693 23
c0 -11 -19 -15 -25 -6 -3 5 1 10 9 10 9 0 16 -2 16 -4z m73 -3 c-7 -2 -19 -2
-25 0 -7 3 -2 5 12 5 14 0 19 -2 13 -5z m1575 0 c-10 -2 -18 -9 -18 -14 0 -15
-17 -10 -24 6 -4 12 2 15 27 14 18 -1 24 -3 15 -6z m67 -11 c-3 -3 -11 0 -18
7 -9 10 -8 11 6 5 10 -3 15 -9 12 -12z m495 -6 c0 -2 -7 -6 -15 -10 -8 -3 -15
-1 -15 4 0 6 7 10 15 10 8 0 15 -2 15 -4z m-2091 -198 c6 -69 13 -133 17 -142
5 -14 -2 -16 -49 -16 -64 0 -58 -12 -77 150 -6 47 -13 100 -16 118 -6 31 -5
32 27 33 19 0 43 4 54 8 27 11 31 -2 44 -151z m1671 125 c0 -16 -7 -85 -17
-155 l-17 -128 -51 0 -51 0 8 78 c4 42 8 107 9 143 l1 66 52 10 c28 5 54 11
59 11 4 1 7 -10 7 -25z m420 -5 c0 -18 -9 -73 -20 -122 -11 -50 -20 -105 -20
-123 l0 -33 -55 0 c-64 0 -64 1 -40 115 8 39 15 93 15 121 l0 50 53 11 c28 5
55 11 60 11 4 1 7 -13 7 -30z m420 10 c0 -13 -14 -83 -32 -155 l-33 -133 -53
0 c-59 0 -57 -12 -26 112 8 31 17 84 20 117 7 60 7 61 38 62 17 0 40 4 51 9
31 13 35 12 35 -12z m-2306 -98 c8 -8 -15 -9 -83 -4 l-93 7 7 -24 c3 -13 9
-31 11 -41 6 -20 33 -26 111 -23 46 2 59 0 51 -9 -7 -7 -39 -10 -87 -8 l-77 3
-14 47 c-8 26 -16 53 -18 59 -5 17 175 10 192 -7z m1298 8 c27 1 28 0 24 -41
-3 -23 -5 -50 -5 -60 -1 -15 -8 -18 -32 -15 l-30 3 -5 -65 c-2 -36 -8 -103
-12 -150 l-7 -85 -50 0 -50 0 1 45 c2 107 12 224 20 226 5 1 26 5 47 9 31 5
41 13 51 37 12 27 14 28 19 9 3 -12 13 -21 22 -21 11 0 15 5 12 14 -3 8 -2 29
3 45 l9 31 -47 1 c-49 2 -52 2 -139 14 l-53 8 0 -47 c0 -49 0 -49 60 -47 19 0
51 -3 70 -8 29 -7 20 -9 -51 -10 l-86 -1 -7 46 c-11 83 -19 78 102 69 59 -5
119 -8 134 -7z m413 0 c29 1 30 -1 27 -38 -2 -23 -10 -41 -19 -44 -11 -5 -13
-2 -8 11 15 37 17 53 6 53 -6 0 -11 -6 -11 -12 0 -9 -3 -8 -10 2 -7 11 -35 16
-104 20 l-95 5 -4 -30 c-2 -16 1 -33 7 -37 8 -5 7 -8 -2 -8 -7 0 -10 -5 -7
-10 5 -8 11 -7 21 1 10 8 14 8 14 0 0 -6 14 -11 30 -11 17 0 30 4 30 9 0 6 16
3 36 -5 30 -13 38 -13 45 -2 6 10 11 10 20 1 6 -6 18 -9 25 -6 8 3 14 0 14 -7
0 -10 -15 -11 -57 -6 -32 4 -89 7 -126 6 l-68 -1 3 62 2 62 101 -8 c55 -5 114
-8 130 -7z m290 2 c-3 -5 -23 -10 -43 -10 -55 0 -67 -11 -54 -49 7 -18 7 -29
2 -26 -6 4 -10 1 -10 -5 0 -7 16 -10 45 -7 25 2 48 0 51 -5 3 -4 -21 -8 -53
-8 l-59 0 3 38 c8 82 8 82 69 82 34 0 53 -4 49 -10z m-1094 -13 c-1 -4 -1 -29
-1 -57 0 -47 -2 -50 -25 -50 -18 0 -25 5 -25 20 0 12 7 20 18 20 14 0 15 -2 2
-10 -8 -5 -11 -12 -8 -15 14 -15 27 7 26 46 0 36 -3 40 -22 35 -21 -5 -21 -5
-1 10 19 14 37 15 36 1z m1246 -9 c-3 -13 -9 -40 -12 -60 -7 -37 -8 -38 -49
-37 -22 1 -33 3 -23 6 9 2 17 9 17 15 0 6 6 6 15 -2 17 -14 19 -10 29 48 4 23
2 32 -7 31 -6 -1 -33 -1 -59 0 -77 2 -56 21 23 21 69 0 71 -1 66 -22z m-1017
-2 c0 -2 -7 -7 -16 -10 -8 -3 -12 -2 -9 4 6 10 25 14 25 6z m493 -3 c-7 -2
-19 -2 -25 0 -7 3 -2 5 12 5 14 0 19 -2 13 -5z m-1618 -29 c0 -25 -10 -23 -17
4 -3 10 0 19 6 19 6 0 11 -10 11 -23z m1233 19 c-10 -2 -26 -2 -35 0 -10 3 -2
5 17 5 19 0 27 -2 18 -5z m49 -15 c-3 -8 -6 -5 -6 6 -1 11 2 17 5 13 3 -3 4
-12 1 -19z m390 16 c-3 -3 -12 -4 -19 -1 -8 3 -5 6 6 6 11 1 17 -2 13 -5z
m401 -3 c11 -7 10 -9 -3 -14 -9 -4 -13 -3 -10 2 3 5 -7 12 -22 14 -27 4 -27 4
-3 5 14 1 31 -2 38 -7z m-1243 -11 c-3 -5 -12 -10 -18 -10 -7 0 -6 4 3 10 19
12 23 12 15 0z m-801 -16 c3 -8 2 -12 -4 -9 -6 3 -10 10 -10 16 0 14 7 11 14
-7z m2073 -16 c-3 -8 -6 -5 -6 6 -1 11 2 17 5 13 3 -3 4 -12 1 -19z m-2037
-23 c11 -13 7 -15 -31 -13 -37 1 -39 2 -11 5 18 2 30 9 27 14 -10 14 1 11 15
-6z m1963 -2 c-7 -2 -19 -2 -25 0 -7 3 -2 5 12 5 14 0 19 -2 13 -5z m-1198
-190 l-7 -123 -49 0 -49 0 0 139 0 138 50 7 c28 4 51 12 52 19 6 49 9 -82 3
-180z m-803 97 c3 -36 8 -100 11 -142 l4 -78 -48 0 c-57 0 -53 -8 -69 153 -5
60 -12 112 -15 117 -3 5 12 11 32 13 77 8 77 8 85 -63z m1622 61 c4 -5 -3 -56
-14 -113 -11 -57 -20 -118 -20 -136 l0 -33 -52 3 -53 3 3 45 c2 25 8 63 13 85
4 22 9 63 9 92 l0 52 38 4 c20 2 45 4 54 5 9 1 19 -2 22 -7z m406 -18 c0 -16
-12 -71 -25 -122 -14 -52 -25 -105 -25 -118 0 -21 -4 -23 -51 -23 l-51 0 5 38
c2 20 12 83 22 139 l18 102 36 4 c20 2 44 4 54 5 12 2 17 -5 17 -25z m-1955
-64 l20 -9 -20 1 c-42 2 -46 0 -39 -28 4 -16 11 -31 17 -34 5 -4 7 -12 3 -17
-9 -15 51 -7 70 9 12 10 13 9 7 -7 -6 -17 -5 -17 10 -5 10 8 17 9 17 3 0 -6
14 -10 30 -10 17 1 36 -4 43 -11 9 -10 8 -11 -5 -6 -10 4 -57 8 -105 9 -51 0
-88 5 -88 11 -1 6 -4 28 -9 49 -5 28 -4 41 6 47 16 10 17 10 43 -2z m908 -5
l97 -7 0 -53 c0 -54 0 -54 -31 -54 -27 0 -30 2 -19 15 11 13 15 13 21 3 5 -7
9 -11 9 -8 1 3 2 22 4 43 l3 37 -43 0 c-23 0 -55 5 -70 10 -14 6 -48 11 -75
12 -28 0 -46 5 -43 10 4 5 16 7 28 4 12 -3 65 -8 119 -12z m307 5 c12 -8 12
-10 -5 -8 -41 3 -45 -1 -45 -44 l0 -43 70 0 c39 1 70 -2 70 -6 0 -5 -34 -8
-75 -8 l-75 0 0 53 c0 30 3 57 7 60 9 10 36 8 53 -4z m380 1 c0 -5 -7 -10 -15
-10 -11 0 -15 -11 -15 -39 0 -46 5 -49 102 -47 36 1 64 -3 61 -7 -6 -10 37 -5
55 6 8 5 12 2 12 -9 0 -14 -7 -16 -52 -10 -29 3 -85 6 -124 6 l-72 0 5 48 c3
26 6 53 8 60 5 14 35 16 35 2z m574 4 c13 -5 13 -10 4 -27 -6 -12 -14 -35 -18
-52 -4 -21 -12 -31 -28 -33 -12 -2 -22 1 -22 7 0 6 6 10 13 9 7 -2 11 6 9 22
-2 20 0 22 9 10 9 -12 10 -11 6 8 -3 12 -1 20 4 16 5 -3 9 -1 9 5 0 5 -5 13
-10 16 -6 4 -8 11 -5 16 7 11 9 11 29 3z m-2368 -18 c1 0 4 -25 7 -53 6 -51 5
-53 -18 -53 -30 0 -55 10 -55 21 0 5 12 4 26 -1 30 -12 54 -13 39 -2 -5 4 -10
13 -11 20 -1 6 -2 20 -2 31 -2 14 -12 20 -49 24 -27 3 -58 9 -70 12 -18 6 -23
3 -24 -11 -1 -17 -2 -17 -6 -1 -2 9 -11 17 -19 17 -16 0 -19 -16 -4 -25 6 -3
10 -21 10 -38 0 -22 3 -28 9 -18 5 8 11 9 15 3 3 -6 20 -9 36 -7 17 2 30 0 30
-5 0 -6 -22 -10 -50 -10 -49 0 -50 1 -50 29 0 17 -4 32 -9 35 -5 3 -11 15 -14
26 -5 20 -2 20 101 14 59 -3 107 -7 108 -8z m1559 4 l51 0 -6 -52 c-5 -53 -5
-53 -42 -56 -37 -3 -38 -5 -38 -41 0 -20 -4 -62 -10 -92 -5 -30 -11 -74 -12
-99 l-4 -45 -48 -3 -49 -3 6 83 c4 46 7 104 7 129 l0 46 45 6 c25 4 56 14 70
23 14 9 25 12 25 8 0 -5 5 -2 10 6 9 13 10 13 10 0 0 -11 2 -12 8 -3 4 7 6 27
4 45 -4 33 -4 33 -60 33 -31 1 -66 7 -77 14 -18 11 -15 12 20 7 22 -3 63 -6
90 -6z m451 -4 c1 0 -1 -16 -3 -33 -6 -41 -23 -43 -23 -4 0 28 -2 29 -47 28
-27 0 -68 5 -93 11 -38 9 -29 10 60 5 58 -3 106 -6 106 -7z m299 7 c-11 -3
-25 -9 -31 -14 -6 -5 -27 -8 -47 -7 -44 2 -46 0 -53 -44 l-6 -34 44 2 c23 1
43 3 43 4 0 1 8 3 18 5 9 2 17 0 17 -5 0 -10 -51 -20 -103 -20 l-40 0 7 38 c3
20 6 45 6 54 0 14 12 18 58 21 92 5 110 5 87 0z m-1345 -58 l0 -34 45 4 c24 2
57 0 72 -5 21 -6 9 -8 -48 -9 l-77 -1 -3 44 c-2 24 -1 42 4 39 4 -2 7 -19 7
-38z m-670 2 c13 -9 20 -17 15 -17 -6 0 -19 7 -29 15 -10 8 -23 12 -27 9 -5
-3 -6 2 -2 11 3 9 9 13 12 8 3 -5 17 -17 31 -26z m403 6 c-20 -7 -15 -23 5
-16 14 5 15 3 5 -8 -10 -9 -16 -10 -24 -2 -13 13 -4 33 14 32 9 0 9 -2 0 -6z
m-38 -23 c3 -6 -1 -7 -9 -4 -18 7 -21 14 -7 14 6 0 13 -4 16 -10z m4 -17 c10
2 25 1 32 -4 9 -5 -8 -9 -44 -9 -49 0 -56 2 -45 14 9 10 17 11 25 4 7 -6 21
-8 32 -5z m-720 -54 c6 -18 11 -57 12 -88 0 -31 4 -77 8 -103 l8 -48 -33 0
c-43 0 -59 30 -73 131 -6 41 -13 86 -17 101 -6 25 -4 27 32 31 22 2 42 4 46 5
3 1 11 -12 17 -29z m408 -119 l5 -131 -48 3 -49 3 -7 94 c-3 51 -9 108 -13
127 -6 32 -4 34 22 35 15 0 37 4 48 9 11 4 24 4 29 0 4 -5 11 -67 13 -140z
m386 126 c3 -7 3 -68 0 -135 l-6 -122 -46 3 -46 3 -3 127 -3 127 28 4 c55 8
71 7 76 -7z m391 -78 c-5 -51 -9 -112 -9 -135 l1 -43 -48 0 c-26 0 -49 3 -51
8 -3 4 -2 62 1 129 l5 122 31 4 c17 2 42 5 55 5 l23 2 -8 -92z m796 78 c0 -8
-7 -45 -16 -83 -9 -37 -19 -90 -23 -118 l-6 -50 -47 -3 -48 -3 0 33 c0 18 4
51 9 73 5 22 12 66 16 97 6 55 7 57 38 61 66 8 77 7 77 -7z m387 -18 c-2 -18
-15 -73 -27 -123 -13 -49 -24 -96 -26 -102 -2 -8 -21 -13 -49 -13 -42 0 -45 2
-45 28 0 15 7 48 14 73 8 26 17 71 21 102 7 53 9 56 39 60 79 10 79 10 73 -25z
m-2091 -62 c1 -1 5 -25 9 -53 6 -50 6 -53 -15 -53 -18 0 -20 3 -11 13 6 7 9
28 8 46 -2 29 -5 32 -29 29 -15 -3 -25 -1 -22 3 2 4 -5 7 -16 6 -11 -1 -20 -6
-20 -12 0 -6 -3 -6 -8 1 -9 14 -132 26 -132 13 0 -5 8 -9 18 -10 9 0 12 -3 5
-5 -7 -3 -9 -12 -6 -20 3 -9 23 -15 62 -16 l56 -1 -60 -7 -60 -7 65 -2 c103
-4 118 -19 18 -18 -86 0 -86 0 -92 27 -3 15 -8 39 -12 54 l-6 26 123 -6 c68
-4 125 -7 125 -8z m330 4 l64 0 0 -55 c0 -42 -3 -55 -15 -55 -9 0 -15 9 -15
23 0 18 2 19 10 7 7 -11 9 -5 7 22 -2 40 -21 56 -43 37 -10 -8 -14 -8 -14 0 0
6 -14 10 -32 10 -18 -1 -54 1 -80 4 -26 3 -50 2 -53 -3 -2 -4 0 -22 6 -39 10
-27 16 -31 47 -31 63 0 142 -12 142 -22 0 -5 -5 -6 -11 -3 -5 4 -48 7 -94 7
-47 0 -87 3 -89 6 -2 4 -7 29 -11 56 l-7 49 63 -6 c34 -4 91 -7 125 -7z m288
4 c9 -3 16 -14 16 -23 0 -14 -2 -14 -10 -1 -9 13 -11 13 -21 0 -9 -13 -10 -12
-5 3 4 13 0 17 -18 17 -28 0 -43 -28 -21 -37 12 -4 13 -8 4 -19 -7 -8 -10 -16
-8 -18 2 -2 49 -6 103 -8 l99 -3 8 29 c5 17 6 32 4 34 -8 8 -105 10 -100 2 2
-3 -2 -7 -10 -7 -8 0 -15 6 -15 14 0 10 18 13 70 13 l70 0 0 -55 c0 -48 -2
-55 -20 -55 -11 0 -20 3 -20 8 0 4 -44 6 -99 5 l-99 -2 -6 37 c-11 68 -9 72
28 72 19 0 41 -3 50 -6z m373 -5 c-10 -6 -24 -8 -32 -5 -7 2 -16 -2 -19 -10
-8 -21 -8 -20 11 -39 16 -16 15 -17 -3 -13 -14 2 -20 13 -22 41 l-3 37 43 0
c35 -1 40 -3 25 -11z m546 -1 c22 1 28 -2 23 -14 -3 -9 -6 -33 -6 -55 0 -35
-3 -39 -24 -39 -14 0 -27 3 -30 8 -2 4 -45 7 -95 6 l-91 -1 0 54 0 55 98 -8
c53 -4 110 -7 125 -6z m389 0 c25 1 26 -1 21 -36 -9 -60 -19 -71 -55 -66 -18
2 -68 6 -110 8 -43 1 -81 6 -85 10 -5 4 44 6 107 4 l114 -3 7 31 c5 29 4 32
-20 32 -14 0 -32 -5 -39 -11 -9 -7 -11 -6 -6 7 5 14 -3 16 -55 18 -34 0 -67 1
-73 2 -7 1 -14 -11 -15 -26 -2 -25 1 -27 45 -31 l47 -3 -52 -2 c-55 -2 -64 6
-55 56 4 23 6 23 101 16 53 -4 108 -7 123 -6z m-756 -37 c-3 -20 -6 -44 -6
-54 0 -16 -5 -18 -42 -11 -24 4 -78 7 -120 7 -46 0 -78 4 -78 10 0 6 40 8 115
4 109 -5 115 -4 115 14 0 11 -7 19 -17 20 -11 0 -13 3 -5 6 6 2 12 9 12 14 0
6 -4 7 -10 4 -5 -3 -10 -2 -10 3 0 5 -15 8 -33 8 -18 -1 -44 2 -58 5 -14 4 12
7 60 7 l83 -1 -6 -36z m-808 -6 c-3 -3 -9 2 -12 12 -6 14 -5 15 5 6 7 -7 10
-15 7 -18z m606 10 c-4 -8 -8 -15 -10 -15 -2 0 -4 7 -4 15 0 8 4 15 10 15 5 0
7 -7 4 -15z m-997 -27 c-3 -7 -5 -2 -5 12 0 14 2 19 5 13 2 -7 2 -19 0 -25z
m281 -5 c-10 -2 -26 -2 -35 0 -10 3 -2 5 17 5 19 0 27 -2 18 -5z m390 0 c-10
-2 -26 -2 -35 0 -10 3 -2 5 17 5 19 0 27 -2 18 -5z m69 1 c-3 -3 -12 -4 -19
-1 -8 3 -5 6 6 6 11 1 17 -2 13 -5z m316 -1 c-7 -2 -21 -2 -30 0 -10 3 -4 5
12 5 17 0 24 -2 18 -5z m94 1 c-3 -3 -12 -4 -19 -1 -8 3 -5 6 6 6 11 1 17 -2
13 -5z m740 0 c-3 -3 -12 -4 -19 -1 -8 3 -5 6 6 6 11 1 17 -2 13 -5z m-1900
-76 c1 -29 5 -92 9 -140 l6 -88 -46 0 c-52 0 -51 -2 -60 116 -3 39 -9 84 -12
101 -6 30 -5 30 42 36 27 3 50 10 52 16 6 19 8 13 9 -41z m381 -101 l3 -127
-46 0 c-53 0 -52 -2 -58 147 l-4 102 41 4 c23 2 46 3 51 2 6 -1 11 -54 13
-128z m382 101 c0 -18 -3 -77 -7 -130 l-6 -98 -42 0 c-25 0 -45 5 -47 13 -3 6
-4 62 -2 122 l3 110 38 6 c21 3 44 7 51 8 7 0 12 -11 12 -31z m380 5 c0 -16
-5 -74 -12 -130 l-12 -103 -49 0 -50 0 7 38 c3 20 9 76 12 124 l7 87 36 4 c20
2 42 4 49 5 7 1 12 -9 12 -25z m382 15 c3 -7 -4 -66 -16 -130 l-21 -118 -42 0
c-23 0 -44 3 -46 8 -3 4 1 45 9 92 7 47 14 99 14 117 0 30 2 32 43 36 23 2 45
4 48 5 4 1 9 -4 11 -10z m388 -5 c0 -10 -12 -61 -25 -112 -14 -52 -25 -103
-25 -113 0 -15 -8 -18 -44 -18 -25 0 -47 3 -49 8 -2 4 4 48 14 97 10 50 18
102 19 117 0 24 4 27 43 31 23 2 48 4 55 5 6 1 12 -6 12 -15z m-2096 -71 c29
-2 37 -5 32 -17 -3 -9 0 -15 9 -15 9 0 12 6 9 15 -4 8 -2 15 4 15 9 0 26 -89
18 -97 -1 -2 -35 0 -73 3 -70 7 -71 7 -76 38 -3 17 -8 38 -12 47 -5 13 0 16
22 14 15 -1 45 -3 67 -3z m419 -5 c26 1 27 -1 27 -48 0 -47 -1 -49 -27 -48
-27 0 -27 1 -5 9 16 7 22 18 22 40 l0 30 -67 0 c-38 0 -85 4 -106 9 -36 9 -63
-3 -39 -18 6 -3 10 -15 9 -25 -1 -10 5 -21 13 -23 13 -4 13 -3 0 6 -9 7 -10
11 -3 11 6 0 15 -4 18 -10 3 -5 22 -10 41 -10 19 0 34 5 34 10 0 6 5 10 11 10
5 0 7 -4 4 -10 -3 -5 1 -10 9 -10 8 0 17 -3 19 -7 3 -5 -32 -7 -78 -5 l-83 3
-6 37 c-11 67 -15 64 87 56 50 -4 104 -7 120 -7z m377 -2 c22 -2 25 -7 26 -49
2 -44 1 -46 -27 -46 -20 0 -29 5 -29 16 0 12 3 14 13 6 18 -15 32 -2 34 31 2
26 0 27 -55 29 -31 1 -70 1 -87 0 -24 -2 -27 0 -15 8 11 8 7 10 -18 6 -19 -2
-35 -6 -37 -8 -7 -7 8 -68 17 -68 5 0 6 6 2 13 -6 9 -4 9 7 1 8 -5 36 -10 62
-9 26 1 50 -2 53 -7 3 -4 -32 -8 -76 -8 -66 0 -81 3 -77 14 3 7 2 30 -3 51
l-8 37 96 -7 c54 -4 108 -8 122 -10z m375 2 c30 2 30 1 27 -48 -4 -49 -4 -49
-39 -49 -27 0 -34 -3 -29 -15 3 -8 0 -53 -6 -100 l-12 -85 -42 0 -42 0 1 89 2
89 43 7 c26 4 47 14 54 25 10 15 15 17 27 7 12 -10 14 -9 8 8 -6 18 -6 18 6 3
12 -15 13 -13 13 16 l-1 34 -70 8 c-64 7 -135 7 -143 -1 -2 -2 3 -16 12 -32
14 -28 17 -29 80 -28 36 1 60 -2 53 -7 -6 -4 -42 -8 -78 -8 l-66 0 -7 38 c-11
68 -15 65 87 56 50 -4 106 -7 122 -7z m378 -1 c27 1 28 0 25 -45 l-3 -46 -40
-2 c-41 -2 -39 1 5 11 19 4 25 12 27 36 2 30 2 30 -50 31 -29 0 -59 2 -68 4
-9 1 -29 6 -45 9 -39 8 -52 -3 -47 -39 5 -31 5 -31 64 -30 33 1 62 -2 65 -7 3
-4 -29 -8 -70 -8 l-76 0 0 51 0 51 93 -8 c50 -5 105 -8 120 -8z m380 0 c24 1
28 -2 23 -20 -3 -12 -6 -33 -6 -48 0 -24 -4 -28 -30 -28 -16 0 -30 4 -30 10 0
5 10 9 22 7 17 -2 22 4 25 29 l4 31 -73 8 c-80 8 -117 9 -124 3 -2 -3 -7 -19
-10 -36 l-6 -31 53 1 c76 1 99 -1 99 -9 0 -5 -36 -7 -80 -5 l-80 4 0 50 0 50
93 -8 c50 -5 105 -8 120 -8z m331 -6 c-3 -8 -8 -30 -11 -47 -4 -25 -11 -33
-27 -33 -11 -1 -46 -3 -77 -6 l-56 -6 10 51 11 50 55 4 c94 5 102 4 95 -13z
m-1181 -17 c-7 -2 -19 -2 -25 0 -7 3 -2 5 12 5 14 0 19 -2 13 -5z m-743 -13
c-8 -5 -19 -10 -25 -10 -5 0 -3 5 5 10 8 5 20 10 25 10 6 0 3 -5 -5 -10z m90
-7 c0 -12 -3 -14 -8 -7 -4 7 -18 14 -32 17 -21 4 -20 4 8 6 24 1 32 -3 32 -16z
m348 10 c-16 -2 -40 -2 -55 0 -16 2 -3 4 27 4 30 0 43 -2 28 -4z m745 0 c-7
-2 -19 -2 -25 0 -7 3 -2 5 12 5 14 0 19 -2 13 -5z m32 -12 c-3 -6 -11 -11 -16
-11 -5 0 -4 6 3 14 14 16 24 13 13 -3z m368 12 c-7 -2 -21 -2 -30 0 -10 3 -4
5 12 5 17 0 24 -2 18 -5z m-76 -19 c-3 -3 -12 -4 -19 -1 -8 3 -5 6 6 6 11 1
17 -2 13 -5z m-1826 -99 c3 -22 9 -59 13 -82 l6 -43 -34 0 c-35 0 -46 15 -46
65 0 11 -9 37 -20 57 l-19 37 27 4 c57 9 66 4 73 -38z m370 33 c1 -7 2 -50 3
-95 l1 -83 -47 0 -48 0 0 68 c0 37 -3 77 -6 89 -5 17 -1 22 18 26 47 9 78 7
79 -5z m371 0 c2 -7 2 -50 0 -95 l-4 -83 -44 0 -44 0 0 68 c0 37 -3 77 -6 89
-5 18 -1 22 23 26 55 8 71 7 75 -5z m748 -6 c0 -9 -5 -33 -10 -52 -6 -19 -11
-54 -12 -77 l-1 -43 -50 0 -49 0 6 33 c3 17 6 58 7 89 2 53 4 57 28 61 63 10
81 7 81 -11z m370 6 c0 -7 -7 -38 -15 -68 -8 -30 -15 -67 -15 -82 0 -27 -2
-28 -50 -28 -54 0 -54 0 -41 47 5 18 11 54 12 80 3 45 5 48 34 54 51 11 75 10
75 -3z m367 -10 c-3 -13 -13 -56 -24 -95 l-18 -73 -49 0 c-42 0 -47 2 -41 18
6 16 34 140 35 154 0 7 33 14 79 17 19 1 22 -3 18 -21z m-2010 -62 l41 0 4
-44 3 -44 -110 7 c-60 4 -111 8 -112 9 -1 1 -6 21 -12 45 l-9 43 76 -8 c42 -4
96 -7 119 -8z m241 2 c-2 -6 -10 -14 -18 -16 -7 -3 -10 0 -6 7 4 6 1 11 -7 11
-8 0 -17 -9 -20 -20 -3 -11 -1 -20 4 -20 5 0 9 -7 9 -15 0 -10 10 -15 28 -15
21 0 24 2 12 10 -19 12 -5 13 18 1 9 -5 43 -11 75 -13 l57 -5 0 29 c0 15 -3
28 -7 29 -58 4 -129 12 -132 15 -2 2 31 4 75 4 l80 0 2 -46 2 -47 -77 7 c-42
3 -93 6 -113 6 -22 0 -37 5 -38 13 -1 6 -5 27 -8 45 -6 31 -6 32 31 32 24 0
35 -4 33 -12z m478 2 l54 0 0 -46 0 -47 -107 7 c-60 4 -109 9 -110 10 -1 1 -5
21 -9 45 l-7 44 63 -6 c35 -4 87 -7 116 -7z m392 -2 c32 1 32 1 32 -45 l0 -46
-82 6 c-46 4 -98 7 -115 7 -32 0 -33 1 -33 46 l0 46 83 -7 c45 -4 97 -7 115
-7z m247 6 c13 -5 14 -8 3 -15 -10 -6 -8 -9 7 -9 16 0 17 -2 6 -9 -15 -10 -43
8 -34 22 2 4 -7 7 -21 7 -27 0 -43 -15 -27 -25 11 -6 4 -35 -8 -35 -8 0 -13
49 -5 61 6 10 55 12 79 3z m365 -3 c0 -6 -5 -13 -12 -17 -7 -5 -8 -3 -3 6 6
10 4 12 -9 7 -10 -4 -24 -7 -31 -7 -9 0 -13 -11 -13 -30 1 -31 12 -40 21 -17
4 7 6 6 6 -4 1 -9 -8 -19 -19 -22 -18 -5 -20 0 -20 44 l0 49 40 0 c22 0 40 -4
40 -9z m-250 -23 c-1 -21 -2 -21 -11 -5 -5 9 -18 17 -27 16 -14 0 -13 -2 3 -9
11 -5 15 -9 9 -9 -7 -1 -25 6 -40 14 l-29 15 48 0 c42 0 47 -2 47 -22z m35 5
c-4 -10 -7 -31 -6 -47 l2 -29 -83 6 c-46 4 -99 7 -118 7 -30 1 -32 2 -16 11
11 7 40 9 75 5 113 -13 131 -14 131 -5 0 5 -4 9 -8 9 -5 0 -7 14 -4 30 3 18
10 30 19 30 11 0 13 -5 8 -17z m365 3 c0 -7 -3 -28 -7 -46 l-6 -33 -80 6 c-44
4 -82 9 -85 12 -14 14 14 17 68 6 48 -10 65 -10 76 0 12 9 12 15 2 27 -9 11
-9 14 -1 9 6 -4 14 -3 18 3 5 9 -9 10 -92 10 -12 0 -25 5 -28 10 -4 6 21 10
64 10 54 0 71 -3 71 -14z m-175 -16 c3 -6 -1 -7 -9 -4 -18 7 -21 14 -7 14 6 0
13 -4 16 -10z m-1475 -15 c0 -8 -2 -15 -4 -15 -2 0 -6 7 -10 15 -3 8 -1 15 4
15 6 0 10 -7 10 -15z"/>
<path d="M3065 1120 c3 -5 8 -10 11 -10 2 0 4 5 4 10 0 6 -5 10 -11 10 -5 0
-7 -4 -4 -10z"/>
<path d="M2267 897 c-8 -22 4 -67 18 -67 7 0 16 6 18 13 4 10 6 10 6 0 1 -9
17 -13 49 -11 l47 1 -45 7 -45 7 42 1 c23 1 45 -2 48 -8 3 -5 21 -10 39 -10
29 0 33 3 34 29 1 26 -3 29 -34 33 -19 2 -39 -1 -44 -6 -7 -7 -10 -6 -10 1 0
6 -13 13 -30 15 -16 3 -30 1 -30 -3 0 -5 -12 -4 -26 1 -32 12 -31 13 -37 -3z
m96 -34 c-7 -2 -21 -2 -30 0 -10 3 -4 5 12 5 17 0 24 -2 18 -5z"/>
<path d="M646 691 c4 -9 9 -26 11 -37 3 -15 12 -21 26 -21 12 1 40 -2 62 -7
38 -7 39 -7 20 9 -11 9 -14 14 -7 10 7 -4 12 0 12 9 0 9 -9 16 -20 16 -11 0
-20 3 -20 8 0 4 -20 12 -45 18 -40 9 -45 9 -39 -5z m94 -41 c0 -5 -2 -10 -4
-10 -3 0 -8 5 -11 10 -3 6 -1 10 4 10 6 0 11 -4 11 -10z"/>
<path d="M2925 700 c-11 -5 -37 -9 -57 -9 -36 -1 -38 -3 -38 -33 l0 -33 50 3
c38 3 51 8 55 23 4 10 10 19 14 19 3 0 7 9 7 20 0 22 -2 23 -31 10z m-65 -24
c0 -3 -4 -8 -10 -11 -5 -3 -10 -1 -10 4 0 6 5 11 10 11 6 0 10 -2 10 -4z m57
-2 c-3 -3 -12 -4 -19 -1 -8 3 -5 6 6 6 11 1 17 -2 13 -5z m-27 -18 c0 -2 -7
-6 -15 -10 -8 -3 -15 -1 -15 4 0 6 7 10 15 10 8 0 15 -2 15 -4z"/>
<path d="M770 513 c0 -11 29 -31 36 -25 5 4 2 -1 -5 -11 -8 -9 -12 -19 -10
-21 2 -2 46 -6 97 -9 95 -6 109 0 80 32 -10 11 -10 13 0 7 6 -4 12 -2 12 5 0
8 -13 10 -40 6 -22 -3 -40 -1 -40 4 0 4 -12 8 -27 8 -16 0 -45 2 -65 4 -21 2
-38 2 -38 0z m57 -9 c-3 -3 -12 -4 -19 -1 -8 3 -5 6 6 6 11 1 17 -2 13 -5z
m20 -40 c-3 -3 -12 -4 -19 -1 -8 3 -5 6 6 6 11 1 17 -2 13 -5z m120 -10 c-3
-3 -12 -4 -19 -1 -8 3 -5 6 6 6 11 1 17 -2 13 -5z"/>
<path d="M1500 510 c0 -5 6 -11 13 -13 8 -4 8 -6 0 -6 -6 -1 -9 -10 -6 -20 3
-12 11 -17 19 -14 8 3 51 0 95 -7 44 -7 82 -10 85 -8 8 8 -7 38 -16 33 -5 -3
-12 0 -16 6 -4 7 -3 9 2 6 6 -3 16 -2 24 4 13 7 13 9 0 9 -42 2 -158 11 -177
15 -13 2 -23 0 -23 -5z"/>
<path d="M1870 497 c0 -8 6 -14 13 -14 7 0 18 6 25 14 10 11 8 13 -13 13 -14
0 -25 -6 -25 -13z"/>
<path d="M1939 497 c11 -14 5 -27 -13 -27 -6 0 -4 5 4 10 13 8 12 10 -2 10
-10 0 -18 -5 -18 -10 0 -6 -6 -10 -14 -8 -8 2 -14 -1 -13 -6 1 -6 22 -11 47
-11 25 -1 63 -5 86 -9 31 -5 44 -3 54 9 19 22 -6 48 -41 43 -16 -3 -26 -1 -23
4 3 4 -14 8 -37 8 -33 0 -39 -3 -30 -13z"/>
<path d="M537 1649 c7 -7 15 -10 18 -7 3 3 -2 9 -12 12 -14 6 -15 5 -6 -5z"/>
<path d="M906 1594 c-4 -31 -4 -59 -2 -62 3 -2 31 -5 63 -6 l58 -1 3 56 c3 63
-3 69 -79 69 l-36 0 -7 -56z"/>
<path d="M572 1610 c7 -11 17 -20 22 -20 5 0 1 9 -9 20 -10 11 -20 20 -22 20
-2 0 2 -9 9 -20z"/>
<path d="M1166 1608 c-3 -13 -6 -40 -6 -60 l0 -37 58 -3 57 -3 1 -65 1 -65 60
-3 60 -3 5 58 c3 32 5 59 3 60 -1 2 -30 6 -64 9 l-62 7 7 63 6 64 -60 0 c-53
0 -60 -2 -66 -22z"/>
<path d="M1426 1609 c-2 -8 -6 -35 -9 -61 -5 -52 2 -58 79 -58 l42 0 5 58 c2
31 4 58 3 59 0 0 -27 4 -58 8 -45 6 -59 4 -62 -6z"/>
<path d="M1680 1571 c0 -16 -3 -42 -6 -59 l-6 -30 56 -4 c32 -1 61 1 67 7 5 5
9 33 9 62 l0 53 -60 0 c-59 0 -60 0 -60 -29z"/>
<path d="M770 1503 c0 -16 -3 -44 -6 -63 l-6 -35 64 0 63 0 3 56 c3 56 3 56
-29 63 -17 3 -44 6 -60 6 -25 0 -29 -4 -29 -27z"/>
<path d="M1026 1479 c-3 -17 -6 -44 -6 -60 0 -29 1 -29 59 -29 l58 0 7 38 c13
81 13 82 -53 82 -58 0 -59 -1 -65 -31z"/>
<path d="M620 1496 c0 -2 7 -7 16 -10 8 -3 12 -2 9 4 -6 10 -25 14 -25 6z"/>
<path d="M1540 1451 c0 -16 -3 -42 -6 -58 l-6 -30 59 -5 c37 -3 61 -1 65 6 4
6 8 35 8 64 l0 52 -60 0 c-59 0 -60 0 -60 -29z"/>
<path d="M1147 1374 c-4 -4 -7 -34 -7 -66 l0 -58 59 0 58 0 6 57 c3 32 5 58 4
59 -8 6 -114 13 -120 8z"/>
<path d="M1400 1331 c0 -16 -3 -42 -6 -59 -6 -30 -6 -30 46 -33 72 -5 80 2 80
66 l0 55 -60 0 c-59 0 -60 0 -60 -29z"/>
<path d="M1260 1211 c0 -16 -3 -42 -6 -58 l-6 -30 59 -5 c37 -3 61 -1 65 6 4
6 8 35 8 64 l0 52 -60 0 c-59 0 -60 0 -60 -29z"/>
</g>
</svg>
