<svg width="60" height="57" viewBox="0 0 60 57" fill="none" xmlns="http://www.w3.org/2000/svg">
<path d="M57 24.0168H55C54.4 10.2168 42.8 -0.483168 29 0.0168323C16 0.516832 5.5 11.0168 5 24.0168H3C1.3 24.0168 0 25.3168 0 27.0168V29.0168C0 30.3168 0.8 31.4168 2 31.8168V49.0168C2 52.9168 5.1 56.0168 9 56.0168H51C54.9 56.0168 58 52.9168 58 49.0168V31.8168C59.2 31.4168 60 30.3168 60 29.0168V27.0168C60 25.3168 58.7 24.0168 57 24.0168ZM49 30.0168V26.0168H53V30.0168H49ZM43 30.0168V26.0168H47V30.0168H43ZM37 30.0168V26.0168H41V30.0168H37ZM31 30.0168V26.0168H35V30.0168H31ZM25 30.0168V26.0168H29V30.0168H25ZM19 30.0168V26.0168H23V30.0168H19ZM13 30.0168V26.0168H17V30.0168H13ZM7 30.0168V26.0168H11V30.0168H7ZM11.1 24.0168C11.6 13.5168 20.5 5.51683 31 6.01683C40.7 6.51683 48.5 14.3168 49 24.0168H11.1ZM30 2.01683C42.3 2.01683 52.4 11.7168 53 24.0168H51C50.4 12.4168 40.6 3.51683 29 4.01683C18.2 4.51683 9.5 13.2168 9 24.0168H7C7.6 11.7168 17.7 2.01683 30 2.01683ZM2 27.0168C2 26.4168 2.4 26.0168 3 26.0168H5V30.0168H3C2.4 30.0168 2 29.6168 2 29.0168V27.0168ZM56 49.0168C56 51.8168 53.8 54.0168 51 54.0168H9C6.2 54.0168 4 51.8168 4 49.0168V32.0168H56V49.0168ZM58 29.0168C58 29.6168 57.6 30.0168 57 30.0168H55V26.0168H57C57.6 26.0168 58 26.4168 58 27.0168V29.0168Z" fill="#283618"/>
<path d="M10 48.0168H6V50.0168H10V48.0168Z" fill="#283618"/>
<path d="M14 44.0168H10V46.0168H14V44.0168Z" fill="#283618"/>
<path d="M18 48.0168H14V50.0168H18V48.0168Z" fill="#283618"/>
<path d="M22 44.0168H18V46.0168H22V44.0168Z" fill="#283618"/>
<path d="M26 48.0168H22V50.0168H26V48.0168Z" fill="#283618"/>
<path d="M30 44.0168H26V46.0168H30V44.0168Z" fill="#283618"/>
<path d="M34 48.0168H30V50.0168H34V48.0168Z" fill="#283618"/>
<path d="M38 44.0168H34V46.0168H38V44.0168Z" fill="#283618"/>
<path d="M42 48.0168H38V50.0168H42V48.0168Z" fill="#283618"/>
<path d="M46 44.0168H42V46.0168H46V44.0168Z" fill="#283618"/>
<path d="M50 48.0168H46V50.0168H50V48.0168Z" fill="#283618"/>
<path d="M54 44.0168H50V46.0168H54V44.0168Z" fill="#283618"/>
<path d="M10 40.0168H6V42.0168H10V40.0168Z" fill="#283618"/>
<path d="M14 36.0168H10V38.0168H14V36.0168Z" fill="#283618"/>
<path d="M18 40.0168H14V42.0168H18V40.0168Z" fill="#283618"/>
<path d="M22 36.0168H18V38.0168H22V36.0168Z" fill="#283618"/>
<path d="M26 40.0168H22V42.0168H26V40.0168Z" fill="#283618"/>
<path d="M30 36.0168H26V38.0168H30V36.0168Z" fill="#283618"/>
<path d="M34 40.0168H30V42.0168H34V40.0168Z" fill="#283618"/>
<path d="M38 36.0168H34V38.0168H38V36.0168Z" fill="#283618"/>
<path d="M42 40.0168H38V42.0168H42V40.0168Z" fill="#283618"/>
<path d="M46 36.0168H42V38.0168H46V36.0168Z" fill="#283618"/>
<path d="M50 40.0168H46V42.0168H50V40.0168Z" fill="#283618"/>
<path d="M54 36.0168H50V38.0168H54V36.0168Z" fill="#283618"/>
</svg>
